# Blender 3.1.0
# www.blender.org
mtllib undulating_smallest.mtl
o undulating
v 30.248291 -3.105713 10.905273
v 31.709229 -4.017701 11.730469
v 31.078857 -4.017701 12.502930
v 30.248291 -0.105713 10.905273
v 31.078857 -1.017701 12.502930
v 31.709229 -1.017701 11.730469
v 12.365479 -0.218873 17.604004
v 15.416260 2.734985 14.367188
v 19.329834 2.407348 15.489258
v 12.365479 2.781127 17.604004
v 19.329834 5.407348 15.489258
v 15.416260 5.734985 14.367188
v 5.553955 -0.680421 32.662598
v 7.769287 -3.726808 37.037598
v 5.914795 -3.735231 36.806641
v 5.553955 2.319579 32.662598
v 5.914795 -0.735231 36.806641
vn -0.3742 -0.8757 -0.3053
vn 0.3742 0.8757 0.3053
vn -0.8873 -0.0000 0.4613
vn 0.7748 -0.0000 0.6322
vn 0.7748 -0.0000 0.6323
vn 0.4918 -0.0000 -0.8707
vn 0.1098 -0.7835 -0.6116
vn -0.1098 0.7835 0.6116
vn 0.2906 -0.0000 0.9569
vn 0.2756 -0.0000 -0.9613
vn -0.7277 -0.0000 -0.6859
vn 0.0778 -0.7992 -0.5959
vn -0.9962 -0.0000 0.0867
vn 0.8921 -0.0000 -0.4517
s 0
usemtl Default_OBJ.001
f 1//1 2//1 3//1
f 4//2 5//2 6//2
f 1//3 5//3 4//3
f 5//3 1//3 3//3
f 3//4 6//4 5//4
f 6//5 3//5 2//5
f 2//6 4//6 6//6
f 4//6 2//6 1//6
f 7//7 8//7 9//7
f 10//8 11//8 12//8
f 7//9 11//9 10//9
f 11//9 7//9 9//9
f 9//10 12//10 11//10
f 12//10 9//10 8//10
f 8//11 10//11 12//11
f 10//11 8//11 7//11
f 13//12 14//12 15//12
f 13//13 17//13 16//13
f 17//13 13//13 15//13
f 16//14 14//14 13//14
